<svg width="196" height="29" viewBox="0 0 196 29" fill="none" xmlns="http://www.w3.org/2000/svg">
<path fill-rule="evenodd" clip-rule="evenodd" d="M38.6104 13.2868C36.9346 3.92762 33.1879 1.16699 31.1949 1.16699C28.0847 1.16699 27.2867 3.47923 20.6672 3.55713C14.0478 3.47923 13.2498 1.16699 10.1396 1.16699C8.14656 1.16699 4.39796 3.92762 2.7222 13.2868C1.76652 18.6295 0.729148 26.6055 3.20099 27.563C6.27701 28.7543 7.32008 25.7752 10.6982 23.2577C14.1276 20.7061 15.773 20.1057 20.6672 20.1057C25.5615 20.1057 27.2069 20.7061 30.6363 23.2577C34.0144 25.7733 35.0575 28.7543 38.1335 27.563C40.6054 26.6055 39.568 18.6314 38.6104 13.2868ZM13.0674 14.5009C12.0596 14.5009 11.0931 14.1005 10.3805 13.3879C9.66788 12.6753 9.26753 11.7088 9.26753 10.701C9.26753 9.69316 9.66788 8.72663 10.3805 8.01401C11.0931 7.30139 12.0596 6.90105 13.0674 6.90105C14.0752 6.90105 15.0418 7.30139 15.7544 8.01401C16.467 8.72663 16.8673 9.69316 16.8673 10.701C16.8673 11.7088 16.467 12.6753 15.7544 13.3879C15.0418 14.1005 14.0752 14.5009 13.0674 14.5009ZM26.3671 14.5009C25.8632 14.5009 25.3799 14.3007 25.0236 13.9444C24.6673 13.5881 24.4672 13.1048 24.4672 12.6009C24.4672 12.097 24.6673 11.6137 25.0236 11.2574C25.3799 10.9011 25.8632 10.701 26.3671 10.701C26.871 10.701 27.3543 10.9011 27.7106 11.2574C28.0669 11.6137 28.2671 12.097 28.2671 12.6009C28.2671 13.1048 28.0669 13.5881 27.7106 13.9444C27.3543 14.3007 26.871 14.5009 26.3671 14.5009ZM30.167 10.701C29.6631 10.701 29.1799 10.5008 28.8235 10.1445C28.4672 9.78816 28.2671 9.3049 28.2671 8.801C28.2671 8.2971 28.4672 7.81384 28.8235 7.45753C29.1799 7.10122 29.6631 6.90105 30.167 6.90105C30.6709 6.90105 31.1542 7.10122 31.5105 7.45753C31.8668 7.81384 32.067 8.2971 32.067 8.801C32.067 9.3049 31.8668 9.78816 31.5105 10.1445C31.1542 10.5008 30.6709 10.701 30.167 10.701Z" fill="url(#paint0_linear_1292_3349)"/>
<path d="M66.236 15.3V22.32C65.356 22.968 64.416 23.444 63.416 23.748C62.424 24.044 61.36 24.192 60.224 24.192C58.808 24.192 57.524 23.972 56.372 23.532C55.228 23.092 54.248 22.48 53.432 21.696C52.624 20.912 52 19.976 51.56 18.888C51.12 17.8 50.9 16.612 50.9 15.324C50.9 14.02 51.112 12.824 51.536 11.736C51.96 10.648 52.56 9.712 53.336 8.928C54.12 8.144 55.068 7.536 56.18 7.104C57.292 6.672 58.54 6.456 59.924 6.456C60.628 6.456 61.284 6.512 61.892 6.624C62.508 6.736 63.076 6.892 63.596 7.092C64.124 7.284 64.604 7.52 65.036 7.8C65.468 8.08 65.864 8.388 66.224 8.724L65.3 10.188C65.156 10.42 64.968 10.564 64.736 10.62C64.504 10.668 64.252 10.608 63.98 10.44C63.716 10.288 63.452 10.136 63.188 9.984C62.924 9.832 62.628 9.7 62.3 9.588C61.98 9.476 61.616 9.384 61.208 9.312C60.808 9.24 60.344 9.204 59.816 9.204C58.96 9.204 58.184 9.348 57.488 9.636C56.8 9.924 56.212 10.336 55.724 10.872C55.236 11.408 54.86 12.052 54.596 12.804C54.332 13.556 54.2 14.396 54.2 15.324C54.2 16.316 54.34 17.204 54.62 17.988C54.908 18.764 55.308 19.424 55.82 19.968C56.34 20.504 56.964 20.916 57.692 21.204C58.42 21.484 59.232 21.624 60.128 21.624C60.768 21.624 61.34 21.556 61.844 21.42C62.348 21.284 62.84 21.1 63.32 20.868V17.724H61.136C60.928 17.724 60.764 17.668 60.644 17.556C60.532 17.436 60.476 17.292 60.476 17.124V15.3H66.236ZM75.3352 18.744C74.4792 18.784 73.7592 18.86 73.1752 18.972C72.5912 19.076 72.1232 19.212 71.7712 19.38C71.4192 19.548 71.1672 19.744 71.0152 19.968C70.8632 20.192 70.7872 20.436 70.7872 20.7C70.7872 21.22 70.9392 21.592 71.2432 21.816C71.5552 22.04 71.9592 22.152 72.4552 22.152C73.0632 22.152 73.5872 22.044 74.0272 21.828C74.4752 21.604 74.9112 21.268 75.3352 20.82V18.744ZM68.5432 13.404C69.9592 12.108 71.6632 11.46 73.6552 11.46C74.3752 11.46 75.0192 11.58 75.5872 11.82C76.1552 12.052 76.6352 12.38 77.0272 12.804C77.4192 13.22 77.7152 13.72 77.9152 14.304C78.1232 14.888 78.2272 15.528 78.2272 16.224V24H76.8832C76.6032 24 76.3872 23.96 76.2352 23.88C76.0832 23.792 75.9632 23.62 75.8752 23.364L75.6112 22.476C75.2992 22.756 74.9952 23.004 74.6992 23.22C74.4032 23.428 74.0952 23.604 73.7752 23.748C73.4552 23.892 73.1112 24 72.7432 24.072C72.3832 24.152 71.9832 24.192 71.5432 24.192C71.0232 24.192 70.5432 24.124 70.1032 23.988C69.6632 23.844 69.2832 23.632 68.9632 23.352C68.6432 23.072 68.3952 22.724 68.2192 22.308C68.0432 21.892 67.9552 21.408 67.9552 20.856C67.9552 20.544 68.0072 20.236 68.1112 19.932C68.2152 19.62 68.3832 19.324 68.6152 19.044C68.8552 18.764 69.1632 18.5 69.5392 18.252C69.9152 18.004 70.3752 17.788 70.9192 17.604C71.4712 17.42 72.1112 17.272 72.8392 17.16C73.5672 17.04 74.3992 16.968 75.3352 16.944V16.224C75.3352 15.4 75.1592 14.792 74.8072 14.4C74.4552 14 73.9472 13.8 73.2832 13.8C72.8032 13.8 72.4032 13.856 72.0832 13.968C71.7712 14.08 71.4952 14.208 71.2552 14.352C71.0152 14.488 70.7952 14.612 70.5952 14.724C70.4032 14.836 70.1872 14.892 69.9472 14.892C69.7392 14.892 69.5632 14.84 69.4192 14.736C69.2752 14.624 69.1592 14.496 69.0712 14.352L68.5432 13.404ZM81.0187 24V11.688H82.8307C83.2147 11.688 83.4667 11.868 83.5867 12.228L83.7787 13.14C83.9947 12.9 84.2187 12.68 84.4507 12.48C84.6907 12.28 84.9427 12.108 85.2067 11.964C85.4787 11.82 85.7667 11.708 86.0707 11.628C86.3827 11.54 86.7227 11.496 87.0907 11.496C87.8667 11.496 88.5027 11.708 88.9987 12.132C89.5027 12.548 89.8787 13.104 90.1267 13.8C90.3187 13.392 90.5587 13.044 90.8467 12.756C91.1347 12.46 91.4507 12.22 91.7947 12.036C92.1387 11.852 92.5027 11.716 92.8867 11.628C93.2787 11.54 93.6707 11.496 94.0627 11.496C94.7427 11.496 95.3467 11.6 95.8747 11.808C96.4027 12.016 96.8467 12.32 97.2067 12.72C97.5667 13.12 97.8387 13.608 98.0227 14.184C98.2147 14.76 98.3107 15.42 98.3107 16.164V24H95.3467V16.164C95.3467 15.38 95.1747 14.792 94.8307 14.4C94.4867 14 93.9827 13.8 93.3187 13.8C93.0147 13.8 92.7307 13.852 92.4667 13.956C92.2107 14.06 91.9827 14.212 91.7827 14.412C91.5907 14.604 91.4387 14.848 91.3267 15.144C91.2147 15.44 91.1587 15.78 91.1587 16.164V24H88.1827V16.164C88.1827 15.34 88.0147 14.74 87.6787 14.364C87.3507 13.988 86.8667 13.8 86.2267 13.8C85.7947 13.8 85.3907 13.908 85.0147 14.124C84.6467 14.332 84.3027 14.62 83.9827 14.988V24H81.0187ZM109.06 16.428C109.06 16.044 109.004 15.684 108.892 15.348C108.788 15.004 108.628 14.704 108.412 14.448C108.196 14.192 107.92 13.992 107.584 13.848C107.256 13.696 106.872 13.62 106.432 13.62C105.576 13.62 104.9 13.864 104.404 14.352C103.916 14.84 103.604 15.532 103.468 16.428H109.06ZM103.408 18.216C103.456 18.848 103.568 19.396 103.744 19.86C103.92 20.316 104.152 20.696 104.44 21C104.728 21.296 105.068 21.52 105.46 21.672C105.86 21.816 106.3 21.888 106.78 21.888C107.26 21.888 107.672 21.832 108.016 21.72C108.368 21.608 108.672 21.484 108.928 21.348C109.192 21.212 109.42 21.088 109.612 20.976C109.812 20.864 110.004 20.808 110.188 20.808C110.436 20.808 110.62 20.9 110.74 21.084L111.592 22.164C111.264 22.548 110.896 22.872 110.488 23.136C110.08 23.392 109.652 23.6 109.204 23.76C108.764 23.912 108.312 24.02 107.848 24.084C107.392 24.148 106.948 24.18 106.516 24.18C105.66 24.18 104.864 24.04 104.128 23.76C103.392 23.472 102.752 23.052 102.208 22.5C101.664 21.94 101.236 21.252 100.924 20.436C100.612 19.612 100.456 18.66 100.456 17.58C100.456 16.74 100.592 15.952 100.864 15.216C101.136 14.472 101.524 13.828 102.028 13.284C102.54 12.732 103.16 12.296 103.888 11.976C104.624 11.656 105.452 11.496 106.372 11.496C107.148 11.496 107.864 11.62 108.52 11.868C109.176 12.116 109.74 12.48 110.212 12.96C110.684 13.432 111.052 14.016 111.316 14.712C111.588 15.4 111.724 16.188 111.724 17.076C111.724 17.524 111.676 17.828 111.58 17.988C111.484 18.14 111.3 18.216 111.028 18.216H103.408ZM121.46 14.088C121.38 14.216 121.296 14.308 121.208 14.364C121.12 14.412 121.008 14.436 120.872 14.436C120.728 14.436 120.572 14.396 120.404 14.316C120.244 14.236 120.056 14.148 119.84 14.052C119.624 13.948 119.376 13.856 119.096 13.776C118.824 13.696 118.5 13.656 118.124 13.656C117.54 13.656 117.08 13.78 116.744 14.028C116.416 14.276 116.252 14.6 116.252 15C116.252 15.264 116.336 15.488 116.504 15.672C116.68 15.848 116.908 16.004 117.188 16.14C117.476 16.276 117.8 16.4 118.16 16.512C118.52 16.616 118.884 16.732 119.252 16.86C119.628 16.988 119.996 17.136 120.356 17.304C120.716 17.464 121.036 17.672 121.316 17.928C121.604 18.176 121.832 18.476 122 18.828C122.176 19.18 122.264 19.604 122.264 20.1C122.264 20.692 122.156 21.24 121.94 21.744C121.732 22.24 121.42 22.672 121.004 23.04C120.588 23.4 120.072 23.684 119.456 23.892C118.848 24.092 118.144 24.192 117.344 24.192C116.92 24.192 116.504 24.152 116.096 24.072C115.696 24 115.308 23.896 114.932 23.76C114.564 23.624 114.22 23.464 113.9 23.28C113.588 23.096 113.312 22.896 113.072 22.68L113.756 21.552C113.844 21.416 113.948 21.312 114.068 21.24C114.188 21.168 114.34 21.132 114.524 21.132C114.708 21.132 114.88 21.184 115.04 21.288C115.208 21.392 115.4 21.504 115.616 21.624C115.832 21.744 116.084 21.856 116.372 21.96C116.668 22.064 117.04 22.116 117.488 22.116C117.84 22.116 118.14 22.076 118.388 21.996C118.644 21.908 118.852 21.796 119.012 21.66C119.18 21.524 119.3 21.368 119.372 21.192C119.452 21.008 119.492 20.82 119.492 20.628C119.492 20.34 119.404 20.104 119.228 19.92C119.06 19.736 118.832 19.576 118.544 19.44C118.264 19.304 117.94 19.184 117.572 19.08C117.212 18.968 116.84 18.848 116.456 18.72C116.08 18.592 115.708 18.444 115.34 18.276C114.98 18.1 114.656 17.88 114.368 17.616C114.088 17.352 113.86 17.028 113.684 16.644C113.516 16.26 113.432 15.796 113.432 15.252C113.432 14.748 113.532 14.268 113.732 13.812C113.932 13.356 114.224 12.96 114.608 12.624C115 12.28 115.484 12.008 116.06 11.808C116.644 11.6 117.316 11.496 118.076 11.496C118.924 11.496 119.696 11.636 120.392 11.916C121.088 12.196 121.668 12.564 122.132 13.02L121.46 14.088ZM134.18 9.804C134.084 9.972 133.98 10.096 133.868 10.176C133.764 10.248 133.632 10.284 133.472 10.284C133.304 10.284 133.12 10.224 132.92 10.104C132.728 9.976 132.496 9.836 132.224 9.684C131.952 9.532 131.632 9.396 131.264 9.276C130.904 9.148 130.476 9.084 129.98 9.084C129.532 9.084 129.14 9.14 128.804 9.252C128.468 9.356 128.184 9.504 127.952 9.696C127.728 9.888 127.56 10.12 127.448 10.392C127.336 10.656 127.28 10.948 127.28 11.268C127.28 11.676 127.392 12.016 127.616 12.288C127.848 12.56 128.152 12.792 128.528 12.984C128.904 13.176 129.332 13.348 129.812 13.5C130.292 13.652 130.784 13.816 131.288 13.992C131.792 14.16 132.284 14.36 132.764 14.592C133.244 14.816 133.672 15.104 134.048 15.456C134.424 15.8 134.724 16.224 134.948 16.728C135.18 17.232 135.296 17.844 135.296 18.564C135.296 19.348 135.16 20.084 134.888 20.772C134.624 21.452 134.232 22.048 133.712 22.56C133.2 23.064 132.572 23.464 131.828 23.76C131.084 24.048 130.232 24.192 129.272 24.192C128.72 24.192 128.176 24.136 127.64 24.024C127.104 23.92 126.588 23.768 126.092 23.568C125.604 23.368 125.144 23.128 124.712 22.848C124.28 22.568 123.896 22.256 123.56 21.912L124.508 20.364C124.588 20.252 124.692 20.16 124.82 20.088C124.948 20.008 125.084 19.968 125.228 19.968C125.428 19.968 125.644 20.052 125.876 20.22C126.108 20.38 126.384 20.56 126.704 20.76C127.024 20.96 127.396 21.144 127.82 21.312C128.252 21.472 128.768 21.552 129.368 21.552C130.288 21.552 131 21.336 131.504 20.904C132.008 20.464 132.26 19.836 132.26 19.02C132.26 18.564 132.144 18.192 131.912 17.904C131.688 17.616 131.388 17.376 131.012 17.184C130.636 16.984 130.208 16.816 129.728 16.68C129.248 16.544 128.76 16.396 128.264 16.236C127.768 16.076 127.28 15.884 126.8 15.66C126.32 15.436 125.892 15.144 125.516 14.784C125.14 14.424 124.836 13.976 124.604 13.44C124.38 12.896 124.268 12.228 124.268 11.436C124.268 10.804 124.392 10.188 124.64 9.588C124.896 8.988 125.264 8.456 125.744 7.992C126.224 7.528 126.816 7.156 127.52 6.876C128.224 6.596 129.032 6.456 129.944 6.456C130.968 6.456 131.912 6.616 132.776 6.936C133.64 7.256 134.376 7.704 134.984 8.28L134.18 9.804ZM141.209 24.192C140.137 24.192 139.313 23.892 138.737 23.292C138.169 22.684 137.885 21.848 137.885 20.784V13.908H136.625C136.465 13.908 136.329 13.856 136.217 13.752C136.105 13.648 136.049 13.492 136.049 13.284V12.108L138.029 11.784L138.653 8.424C138.693 8.264 138.769 8.14 138.881 8.052C138.993 7.964 139.137 7.92 139.313 7.92H140.849V11.796H144.137V13.908H140.849V20.58C140.849 20.964 140.941 21.264 141.125 21.48C141.317 21.696 141.577 21.804 141.905 21.804C142.089 21.804 142.241 21.784 142.361 21.744C142.489 21.696 142.597 21.648 142.685 21.6C142.781 21.552 142.865 21.508 142.937 21.468C143.009 21.42 143.081 21.396 143.153 21.396C143.241 21.396 143.313 21.42 143.369 21.468C143.425 21.508 143.485 21.572 143.549 21.66L144.437 23.1C144.005 23.46 143.509 23.732 142.949 23.916C142.389 24.1 141.809 24.192 141.209 24.192ZM151.389 11.496C152.301 11.496 153.129 11.644 153.873 11.94C154.625 12.236 155.265 12.656 155.793 13.2C156.329 13.744 156.741 14.408 157.029 15.192C157.317 15.976 157.461 16.852 157.461 17.82C157.461 18.796 157.317 19.676 157.029 20.46C156.741 21.244 156.329 21.912 155.793 22.464C155.265 23.016 154.625 23.44 153.873 23.736C153.129 24.032 152.301 24.18 151.389 24.18C150.469 24.18 149.633 24.032 148.881 23.736C148.129 23.44 147.485 23.016 146.949 22.464C146.421 21.912 146.009 21.244 145.713 20.46C145.425 19.676 145.281 18.796 145.281 17.82C145.281 16.852 145.425 15.976 145.713 15.192C146.009 14.408 146.421 13.744 146.949 13.2C147.485 12.656 148.129 12.236 148.881 11.94C149.633 11.644 150.469 11.496 151.389 11.496ZM151.389 21.9C152.413 21.9 153.169 21.556 153.657 20.868C154.153 20.18 154.401 19.172 154.401 17.844C154.401 16.516 154.153 15.504 153.657 14.808C153.169 14.112 152.413 13.764 151.389 13.764C150.349 13.764 149.577 14.116 149.073 14.82C148.577 15.516 148.329 16.524 148.329 17.844C148.329 19.164 148.577 20.172 149.073 20.868C149.577 21.556 150.349 21.9 151.389 21.9ZM162.518 13.824C162.902 13.088 163.358 12.512 163.886 12.096C164.414 11.672 165.038 11.46 165.758 11.46C166.326 11.46 166.782 11.584 167.126 11.832L166.934 14.052C166.894 14.196 166.834 14.3 166.754 14.364C166.682 14.42 166.582 14.448 166.454 14.448C166.334 14.448 166.154 14.428 165.914 14.388C165.682 14.348 165.454 14.328 165.23 14.328C164.902 14.328 164.61 14.376 164.354 14.472C164.098 14.568 163.866 14.708 163.658 14.892C163.458 15.068 163.278 15.284 163.118 15.54C162.966 15.796 162.822 16.088 162.686 16.416V24H159.722V11.688H161.462C161.766 11.688 161.978 11.744 162.098 11.856C162.218 11.96 162.298 12.152 162.338 12.432L162.518 13.824ZM176.255 16.428C176.255 16.044 176.199 15.684 176.087 15.348C175.983 15.004 175.823 14.704 175.607 14.448C175.391 14.192 175.115 13.992 174.779 13.848C174.451 13.696 174.067 13.62 173.627 13.62C172.771 13.62 172.095 13.864 171.599 14.352C171.111 14.84 170.799 15.532 170.663 16.428H176.255ZM170.603 18.216C170.651 18.848 170.763 19.396 170.939 19.86C171.115 20.316 171.347 20.696 171.635 21C171.923 21.296 172.263 21.52 172.655 21.672C173.055 21.816 173.495 21.888 173.975 21.888C174.455 21.888 174.867 21.832 175.211 21.72C175.563 21.608 175.867 21.484 176.123 21.348C176.387 21.212 176.615 21.088 176.807 20.976C177.007 20.864 177.199 20.808 177.383 20.808C177.631 20.808 177.815 20.9 177.935 21.084L178.787 22.164C178.459 22.548 178.091 22.872 177.683 23.136C177.275 23.392 176.847 23.6 176.399 23.76C175.959 23.912 175.507 24.02 175.043 24.084C174.587 24.148 174.143 24.18 173.711 24.18C172.855 24.18 172.059 24.04 171.323 23.76C170.587 23.472 169.947 23.052 169.403 22.5C168.859 21.94 168.431 21.252 168.119 20.436C167.807 19.612 167.651 18.66 167.651 17.58C167.651 16.74 167.787 15.952 168.059 15.216C168.331 14.472 168.719 13.828 169.223 13.284C169.735 12.732 170.355 12.296 171.083 11.976C171.819 11.656 172.647 11.496 173.567 11.496C174.343 11.496 175.059 11.62 175.715 11.868C176.371 12.116 176.935 12.48 177.407 12.96C177.879 13.432 178.247 14.016 178.511 14.712C178.783 15.4 178.919 16.188 178.919 17.076C178.919 17.524 178.871 17.828 178.775 17.988C178.679 18.14 178.495 18.216 178.223 18.216H170.603Z" fill="url(#paint1_linear_1292_3349)"/>
<defs>
<linearGradient id="paint0_linear_1292_3349" x1="1.66797" y1="14.2781" x2="39.6663" y2="14.2781" gradientUnits="userSpaceOnUse">
<stop stop-color="#3DAFE2"/>
<stop offset="1" stop-color="#6F76C0"/>
</linearGradient>
<linearGradient id="paint1_linear_1292_3349" x1="50" y1="14.2583" x2="180" y2="14.2583" gradientUnits="userSpaceOnUse">
<stop stop-color="#3DAFE2"/>
<stop offset="1" stop-color="#6F76C0"/>
</linearGradient>
</defs>
</svg>
